<?xml version="1.0" standalone="no"?>
<svg viewBox="0 0 200 200" xmlns="http://www.w3.org/2000/svg">
  <path fill="#FF0066" d="M43.8,-63.5C56,-60.2,64.8,-46.9,67.3,-33.2C69.7,-19.4,65.9,-5.2,61,6.7C56,18.6,49.9,28.3,43.4,40C37,51.7,30.1,65.5,19.3,71.1C8.5,76.8,-6.3,74.2,-20.5,70C-34.8,65.8,-48.6,59.9,-60.9,50.2C-73.2,40.5,-84,27.1,-88.8,11.2C-93.5,-4.7,-92.1,-23.1,-81,-32.6C-69.8,-42.2,-48.9,-42.9,-33.8,-44.9C-18.7,-46.9,-9.3,-50.1,3.2,-55.1C15.8,-60.1,31.5,-66.8,43.8,-63.5Z" transform="translate(100 100)" />
</svg>
